<mxfile host="app.diagrams.net" modified="2024-01-20T09:40:37.136Z" agent="Mozilla/5.0 (Windows NT 10.0; Win64; x64; rv:109.0) Gecko/20100101 Firefox/115.0" etag="Di5FMOXCL09giOZSMCGe" version="22.1.21" type="device">
  <diagram id="h55tdj7QSrnUSHJwO-mU" name="Page-1">
    <mxGraphModel dx="1033" dy="1182" grid="1" gridSize="10" guides="1" tooltips="1" connect="1" arrows="1" fold="1" page="1" pageScale="1" pageWidth="850" pageHeight="1100" math="0" shadow="0">
      <root>
        <mxCell id="0" />
        <mxCell id="1" parent="0" />
        <mxCell id="G-eGzGCWV8WMttfqfIlS-1" value="&lt;div&gt;&lt;b&gt;Examples of code run in backend&lt;/b&gt;&lt;br&gt;&lt;br&gt;&lt;/div&gt;&lt;div&gt;1. While starting the server process: setup up express object, CORS, routing, port, attaching other middleware for authentication, authorization, validation, and finally starting the server process.&lt;/div&gt;&lt;div&gt;&lt;br&gt;&lt;/div&gt;&lt;div&gt;2. While later a request will come in: resolving routing, running auth, auth, validation, and if all ok, starting database operation&lt;/div&gt;&lt;div&gt;&lt;br&gt;&lt;/div&gt;&lt;div&gt;3. When database operation returns: resolving promise outcome, returning data towards http response, or an error code/message, logging to app.log &lt;br&gt;&lt;/div&gt;" style="rounded=0;whiteSpace=wrap;html=1;dashed=1;" vertex="1" parent="1">
          <mxGeometry x="640" y="100" width="200" height="340" as="geometry" />
        </mxCell>
        <mxCell id="TLyrYJzbf9Jdq_ymWs2M-2" value="Actor" style="shape=umlActor;verticalLabelPosition=bottom;verticalAlign=top;html=1;outlineConnect=0;" parent="1" vertex="1">
          <mxGeometry x="30" y="100" width="30" height="60" as="geometry" />
        </mxCell>
        <mxCell id="TLyrYJzbf9Jdq_ymWs2M-6" value="" style="shape=trapezoid;perimeter=trapezoidPerimeter;whiteSpace=wrap;html=1;fixedSize=1;" parent="1" vertex="1">
          <mxGeometry x="70" y="160" width="120" height="20" as="geometry" />
        </mxCell>
        <mxCell id="TLyrYJzbf9Jdq_ymWs2M-7" value="frontend" style="shape=parallelogram;perimeter=parallelogramPerimeter;whiteSpace=wrap;html=1;fixedSize=1;" parent="1" vertex="1">
          <mxGeometry x="90" y="100" width="100" height="60" as="geometry" />
        </mxCell>
        <mxCell id="TLyrYJzbf9Jdq_ymWs2M-8" value="&lt;div&gt;Browser with it&#39;s JS environment, and there the React SPA, with AJAX capabilities,&lt;/div&gt;&lt;div&gt;&lt;br&gt;&lt;/div&gt;&lt;div&gt;dev time also a React Node dev server e.g. at port :8787&lt;br&gt;&lt;/div&gt;" style="shape=process;whiteSpace=wrap;html=1;backgroundOutline=1;" parent="1" vertex="1">
          <mxGeometry x="50" y="210" width="140" height="170" as="geometry" />
        </mxCell>
        <mxCell id="TLyrYJzbf9Jdq_ymWs2M-10" value="Backend server computer : port e.g. 8686" style="swimlane;" parent="1" vertex="1">
          <mxGeometry x="340" y="20" width="285" height="650" as="geometry" />
        </mxCell>
        <mxCell id="G-eGzGCWV8WMttfqfIlS-2" value="" style="rounded=0;whiteSpace=wrap;html=1;" vertex="1" parent="TLyrYJzbf9Jdq_ymWs2M-10">
          <mxGeometry x="67.5" y="370" width="190" height="270" as="geometry" />
        </mxCell>
        <mxCell id="TLyrYJzbf9Jdq_ymWs2M-38" value="&lt;div&gt;Knex and our Knex code&lt;/div&gt;&lt;div&gt;&lt;br&gt;&lt;/div&gt;&lt;div&gt;&lt;br&gt;&lt;/div&gt;" style="rounded=0;whiteSpace=wrap;html=1;" parent="TLyrYJzbf9Jdq_ymWs2M-10" vertex="1">
          <mxGeometry x="90" y="210" width="120" height="70" as="geometry" />
        </mxCell>
        <mxCell id="TLyrYJzbf9Jdq_ymWs2M-48" style="rounded=0;orthogonalLoop=1;jettySize=auto;html=1;exitX=0.855;exitY=0;exitDx=0;exitDy=4.35;exitPerimeter=0;fontSize=9;startArrow=classic;startFill=1;endArrow=none;endFill=0;entryX=0.39;entryY=0.994;entryDx=0;entryDy=0;entryPerimeter=0;" parent="TLyrYJzbf9Jdq_ymWs2M-10" source="TLyrYJzbf9Jdq_ymWs2M-21" target="TLyrYJzbf9Jdq_ymWs2M-30" edge="1">
          <mxGeometry relative="1" as="geometry" />
        </mxCell>
        <mxCell id="TLyrYJzbf9Jdq_ymWs2M-21" value="(winston) log files" style="shape=cylinder3;whiteSpace=wrap;html=1;boundedLbl=1;backgroundOutline=1;size=15;" parent="TLyrYJzbf9Jdq_ymWs2M-10" vertex="1">
          <mxGeometry x="10" y="240" width="60" height="60" as="geometry" />
        </mxCell>
        <mxCell id="TLyrYJzbf9Jdq_ymWs2M-30" value="&lt;div&gt;&amp;nbsp;&amp;nbsp;&amp;nbsp;&amp;nbsp;&amp;nbsp;&amp;nbsp;&amp;nbsp;&amp;nbsp;&amp;nbsp;&amp;nbsp;&amp;nbsp;&amp;nbsp;&amp;nbsp;&amp;nbsp;&amp;nbsp; Express code setting&lt;/div&gt;&lt;div&gt;&amp;nbsp;up Node.js&lt;/div&gt;&lt;br&gt;&lt;br&gt;&lt;br&gt;&lt;div&gt;&lt;br&gt;&lt;/div&gt;&lt;div&gt;&lt;br&gt;&lt;/div&gt;&lt;div&gt;&lt;br&gt;&lt;/div&gt;&amp;nbsp;&amp;nbsp;&amp;nbsp;&amp;nbsp;&amp;nbsp;&amp;nbsp;&amp;nbsp;&amp;nbsp;&amp;nbsp;&amp;nbsp;&amp;nbsp;&amp;nbsp;&amp;nbsp;&amp;nbsp; Auth x 2, validation&lt;br&gt;&lt;div&gt;&amp;nbsp;&amp;nbsp;&amp;nbsp;&amp;nbsp;&amp;nbsp;&amp;nbsp;&amp;nbsp;&amp;nbsp;&amp;nbsp;&amp;nbsp;&amp;nbsp;&amp;nbsp;&amp;nbsp;&amp;nbsp;&amp;nbsp;&amp;nbsp;&amp;nbsp; Also our plain TS/JS&lt;/div&gt;&lt;div&gt;&amp;nbsp; &amp;nbsp; &amp;nbsp; &amp;nbsp; &amp;nbsp;&amp;nbsp;&amp;nbsp; code and objects&lt;/div&gt;" style="rounded=0;whiteSpace=wrap;html=1;" parent="TLyrYJzbf9Jdq_ymWs2M-10" vertex="1">
          <mxGeometry y="40" width="210" height="170" as="geometry" />
        </mxCell>
        <mxCell id="TLyrYJzbf9Jdq_ymWs2M-31" value="(Node.js)" style="rounded=0;whiteSpace=wrap;html=1;" parent="TLyrYJzbf9Jdq_ymWs2M-10" vertex="1">
          <mxGeometry x="130" y="80" width="60" height="70" as="geometry" />
        </mxCell>
        <mxCell id="TLyrYJzbf9Jdq_ymWs2M-35" style="edgeStyle=orthogonalEdgeStyle;rounded=0;orthogonalLoop=1;jettySize=auto;html=1;exitX=0.5;exitY=1;exitDx=0;exitDy=0;startArrow=classic;startFill=1;" parent="TLyrYJzbf9Jdq_ymWs2M-10" source="TLyrYJzbf9Jdq_ymWs2M-31" target="TLyrYJzbf9Jdq_ymWs2M-31" edge="1">
          <mxGeometry relative="1" as="geometry" />
        </mxCell>
        <mxCell id="TLyrYJzbf9Jdq_ymWs2M-36" value="&lt;div align=&quot;center&quot;&gt;system&#39;s env variables&lt;/div&gt;" style="rounded=0;whiteSpace=wrap;html=1;align=center;" parent="TLyrYJzbf9Jdq_ymWs2M-10" vertex="1">
          <mxGeometry x="230" y="40" width="50" height="40" as="geometry" />
        </mxCell>
        <mxCell id="TLyrYJzbf9Jdq_ymWs2M-37" value="mysql (driver)" style="rounded=0;whiteSpace=wrap;html=1;" parent="TLyrYJzbf9Jdq_ymWs2M-10" vertex="1">
          <mxGeometry x="110" y="250" width="90" height="20" as="geometry" />
        </mxCell>
        <mxCell id="TLyrYJzbf9Jdq_ymWs2M-49" value="&lt;div align=&quot;center&quot;&gt;backend server&#39;s console&lt;/div&gt;" style="rounded=1;whiteSpace=wrap;html=1;fontSize=9;fillColor=#FFFFFF;align=center;" parent="TLyrYJzbf9Jdq_ymWs2M-10" vertex="1">
          <mxGeometry x="230" y="225" width="50" height="40" as="geometry" />
        </mxCell>
        <mxCell id="TLyrYJzbf9Jdq_ymWs2M-47" value="" style="endArrow=classic;startArrow=none;html=1;rounded=0;fontSize=9;startFill=0;exitX=1;exitY=0.75;exitDx=0;exitDy=0;entryX=0.5;entryY=0;entryDx=0;entryDy=0;" parent="TLyrYJzbf9Jdq_ymWs2M-10" source="TLyrYJzbf9Jdq_ymWs2M-30" target="TLyrYJzbf9Jdq_ymWs2M-49" edge="1">
          <mxGeometry width="50" height="50" relative="1" as="geometry">
            <mxPoint x="30" y="390" as="sourcePoint" />
            <mxPoint x="80" y="340" as="targetPoint" />
          </mxGeometry>
        </mxCell>
        <mxCell id="TLyrYJzbf9Jdq_ymWs2M-1" value="&lt;div&gt;&lt;br&gt;&lt;/div&gt;&lt;div&gt;&lt;br&gt;&lt;/div&gt;&lt;div&gt;&lt;br&gt;&lt;/div&gt;&lt;div&gt;&lt;br&gt;&lt;/div&gt;&lt;div&gt;data&lt;/div&gt;" style="shape=cylinder3;whiteSpace=wrap;html=1;boundedLbl=1;backgroundOutline=1;size=15;labelPosition=center;verticalLabelPosition=middle;align=center;verticalAlign=middle;" parent="TLyrYJzbf9Jdq_ymWs2M-10" vertex="1">
          <mxGeometry x="127.5" y="490" width="60" height="120" as="geometry" />
        </mxCell>
        <mxCell id="TLyrYJzbf9Jdq_ymWs2M-16" value="&lt;div&gt;mysqld/&lt;/div&gt;&lt;div&gt;mariadbd&lt;br&gt;&lt;/div&gt;" style="shape=process;whiteSpace=wrap;html=1;backgroundOutline=1;" parent="TLyrYJzbf9Jdq_ymWs2M-10" vertex="1">
          <mxGeometry x="122.5" y="390" width="70" height="60" as="geometry" />
        </mxCell>
        <mxCell id="TLyrYJzbf9Jdq_ymWs2M-20" value="" style="edgeStyle=orthogonalEdgeStyle;rounded=0;orthogonalLoop=1;jettySize=auto;html=1;startArrow=classic;startFill=1;" parent="TLyrYJzbf9Jdq_ymWs2M-10" source="TLyrYJzbf9Jdq_ymWs2M-1" target="TLyrYJzbf9Jdq_ymWs2M-16" edge="1">
          <mxGeometry relative="1" as="geometry" />
        </mxCell>
        <mxCell id="TLyrYJzbf9Jdq_ymWs2M-17" value="metadata" style="shape=cylinder3;whiteSpace=wrap;html=1;boundedLbl=1;backgroundOutline=1;size=15;" parent="TLyrYJzbf9Jdq_ymWs2M-10" vertex="1">
          <mxGeometry x="127.5" y="470" width="60" height="60" as="geometry" />
        </mxCell>
        <mxCell id="TLyrYJzbf9Jdq_ymWs2M-19" style="edgeStyle=orthogonalEdgeStyle;rounded=0;orthogonalLoop=1;jettySize=auto;html=1;entryX=0.5;entryY=1;entryDx=0;entryDy=0;startArrow=classic;startFill=1;" parent="TLyrYJzbf9Jdq_ymWs2M-10" source="TLyrYJzbf9Jdq_ymWs2M-17" target="TLyrYJzbf9Jdq_ymWs2M-16" edge="1">
          <mxGeometry relative="1" as="geometry" />
        </mxCell>
        <mxCell id="TLyrYJzbf9Jdq_ymWs2M-24" value=":3306" style="rounded=0;whiteSpace=wrap;html=1;" parent="TLyrYJzbf9Jdq_ymWs2M-10" vertex="1">
          <mxGeometry x="137.5" y="380" width="40" height="20" as="geometry" />
        </mxCell>
        <mxCell id="t30_W6AVCSpnA5dPM2ru-3" value="&lt;div style=&quot;font-size: 10px;&quot;&gt;DBMS&lt;/div&gt;&lt;div style=&quot;font-size: 10px;&quot;&gt;=====&lt;br&gt;&lt;/div&gt;&lt;div style=&quot;font-size: 10px;&quot;&gt;root&lt;br&gt;&lt;/div&gt;&lt;div style=&quot;font-size: 10px;&quot;&gt;user3&lt;/div&gt;&lt;div style=&quot;font-size: 10px;&quot;&gt;casedb&lt;br style=&quot;font-size: 10px;&quot;&gt;&lt;/div&gt;" style="text;strokeColor=none;align=center;fillColor=none;html=1;verticalAlign=middle;whiteSpace=wrap;rounded=0;fontSize=10;" parent="TLyrYJzbf9Jdq_ymWs2M-10" vertex="1">
          <mxGeometry x="62.5" y="450" width="60" height="80" as="geometry" />
        </mxCell>
        <mxCell id="t30_W6AVCSpnA5dPM2ru-7" value="" style="rounded=0;whiteSpace=wrap;html=1;" parent="TLyrYJzbf9Jdq_ymWs2M-10" vertex="1">
          <mxGeometry x="137.5" y="550" width="40" height="30" as="geometry" />
        </mxCell>
        <mxCell id="t30_W6AVCSpnA5dPM2ru-6" value="" style="endArrow=none;html=1;rounded=0;exitX=0.475;exitY=0.35;exitDx=0;exitDy=0;exitPerimeter=0;entryX=-0.133;entryY=0.871;entryDx=0;entryDy=0;entryPerimeter=0;" parent="TLyrYJzbf9Jdq_ymWs2M-10" source="t30_W6AVCSpnA5dPM2ru-7" target="TLyrYJzbf9Jdq_ymWs2M-17" edge="1">
          <mxGeometry width="50" height="50" relative="1" as="geometry">
            <mxPoint x="144.5" y="510" as="sourcePoint" />
            <mxPoint x="47.5" y="580" as="targetPoint" />
          </mxGeometry>
        </mxCell>
        <mxCell id="t30_W6AVCSpnA5dPM2ru-10" value="&lt;div&gt;Case DB&lt;/div&gt;&lt;div&gt;=======&lt;/div&gt;&lt;div style=&quot;font-size: 10px;&quot;&gt;admin - $wE4dIs43 isPlanner=0&lt;/div&gt;&lt;div style=&quot;font-size: 10px;&quot;&gt;&amp;nbsp;&lt;br&gt;&lt;/div&gt;&lt;div&gt;other datatables&lt;/div&gt;&lt;div&gt;&lt;br&gt;&lt;/div&gt;&lt;div&gt;log_event tables&lt;br&gt;&lt;/div&gt;" style="text;strokeColor=none;align=center;fillColor=none;html=1;verticalAlign=middle;whiteSpace=wrap;rounded=0;fontSize=10;" parent="TLyrYJzbf9Jdq_ymWs2M-10" vertex="1">
          <mxGeometry x="177.5" y="550" width="80" height="30" as="geometry" />
        </mxCell>
        <mxCell id="t30_W6AVCSpnA5dPM2ru-5" value="" style="endArrow=none;html=1;rounded=0;" parent="TLyrYJzbf9Jdq_ymWs2M-10" target="t30_W6AVCSpnA5dPM2ru-3" edge="1">
          <mxGeometry width="50" height="50" relative="1" as="geometry">
            <mxPoint x="142.5" y="510" as="sourcePoint" />
            <mxPoint x="118.5" y="492" as="targetPoint" />
          </mxGeometry>
        </mxCell>
        <mxCell id="TLyrYJzbf9Jdq_ymWs2M-42" style="rounded=0;orthogonalLoop=1;jettySize=auto;html=1;entryX=0.5;entryY=1;entryDx=0;entryDy=0;startArrow=classic;startFill=1;exitX=0.5;exitY=0;exitDx=0;exitDy=0;" parent="TLyrYJzbf9Jdq_ymWs2M-10" target="TLyrYJzbf9Jdq_ymWs2M-37" edge="1" source="TLyrYJzbf9Jdq_ymWs2M-24">
          <mxGeometry relative="1" as="geometry">
            <mxPoint x="150" y="290" as="sourcePoint" />
            <mxPoint x="390" y="440" as="targetPoint" />
          </mxGeometry>
        </mxCell>
        <mxCell id="G-eGzGCWV8WMttfqfIlS-5" style="edgeStyle=orthogonalEdgeStyle;rounded=0;orthogonalLoop=1;jettySize=auto;html=1;exitX=0.25;exitY=0;exitDx=0;exitDy=0;entryX=0.086;entryY=0.006;entryDx=0;entryDy=0;entryPerimeter=0;" edge="1" parent="TLyrYJzbf9Jdq_ymWs2M-10" source="TLyrYJzbf9Jdq_ymWs2M-29" target="TLyrYJzbf9Jdq_ymWs2M-30">
          <mxGeometry relative="1" as="geometry" />
        </mxCell>
        <mxCell id="TLyrYJzbf9Jdq_ymWs2M-29" value="&lt;div&gt;REST API endpoints with Express router:&lt;/div&gt;&lt;div align=&quot;left&quot;&gt;* --- / --- / --&lt;/div&gt;&lt;div align=&quot;left&quot;&gt;* --- / --- / --&lt;/div&gt;&lt;div align=&quot;left&quot;&gt;* --- / --- &lt;br&gt;&lt;/div&gt;&lt;div align=&quot;left&quot;&gt;* --- / &lt;br&gt;&lt;/div&gt;&lt;div align=&quot;left&quot;&gt;* --- / --- / --&lt;/div&gt;&lt;div align=&quot;left&quot;&gt;* --- / --- / &lt;br&gt;&lt;/div&gt;" style="rounded=0;whiteSpace=wrap;html=1;" parent="TLyrYJzbf9Jdq_ymWs2M-10" vertex="1">
          <mxGeometry y="40" width="70" height="170" as="geometry" />
        </mxCell>
        <mxCell id="G-eGzGCWV8WMttfqfIlS-21" value="&lt;div&gt;.env&amp;nbsp;&lt;/div&gt;&lt;div&gt;file&lt;/div&gt;" style="shape=cylinder3;whiteSpace=wrap;html=1;boundedLbl=1;backgroundOutline=1;size=15;" vertex="1" parent="TLyrYJzbf9Jdq_ymWs2M-10">
          <mxGeometry x="230" y="85" width="50" height="60" as="geometry" />
        </mxCell>
        <mxCell id="TLyrYJzbf9Jdq_ymWs2M-55" value="" style="endArrow=classic;html=1;rounded=0;fontSize=9;" parent="1" edge="1">
          <mxGeometry width="50" height="50" relative="1" as="geometry">
            <mxPoint x="200" y="120" as="sourcePoint" />
            <mxPoint x="290" y="120" as="targetPoint" />
          </mxGeometry>
        </mxCell>
        <mxCell id="TLyrYJzbf9Jdq_ymWs2M-56" value="AJAX HTTP requests, HTTP Method (GET, POST), JSON post data, URI, parameters, tokens" style="text;html=1;strokeColor=none;fillColor=none;align=center;verticalAlign=middle;whiteSpace=wrap;rounded=0;fontSize=9;" parent="1" vertex="1">
          <mxGeometry x="220" y="50" width="60" height="30" as="geometry" />
        </mxCell>
        <mxCell id="TLyrYJzbf9Jdq_ymWs2M-57" value="" style="endArrow=classic;html=1;rounded=0;fontSize=9;" parent="1" edge="1">
          <mxGeometry width="50" height="50" relative="1" as="geometry">
            <mxPoint x="290" y="160" as="sourcePoint" />
            <mxPoint x="200" y="160" as="targetPoint" />
          </mxGeometry>
        </mxCell>
        <mxCell id="TLyrYJzbf9Jdq_ymWs2M-58" value="AJAX HTTP responses, JSON return data, HTTP status code, tokens" style="text;html=1;strokeColor=none;fillColor=none;align=center;verticalAlign=middle;whiteSpace=wrap;rounded=0;fontSize=9;" parent="1" vertex="1">
          <mxGeometry x="220" y="180" width="60" height="30" as="geometry" />
        </mxCell>
        <mxCell id="TLyrYJzbf9Jdq_ymWs2M-60" value="" style="endArrow=classic;html=1;rounded=0;fontSize=9;" parent="1" edge="1">
          <mxGeometry width="50" height="50" relative="1" as="geometry">
            <mxPoint x="295" y="264.5" as="sourcePoint" />
            <mxPoint x="205" y="264.5" as="targetPoint" />
          </mxGeometry>
        </mxCell>
        <mxCell id="TLyrYJzbf9Jdq_ymWs2M-61" value="image files, video stream, (CSS, HTML and JS files in some frameworks)" style="text;html=1;strokeColor=none;fillColor=none;align=center;verticalAlign=middle;whiteSpace=wrap;rounded=0;fontSize=9;" parent="1" vertex="1">
          <mxGeometry x="220" y="290" width="60" height="30" as="geometry" />
        </mxCell>
        <mxCell id="t30_W6AVCSpnA5dPM2ru-9" value="&lt;div align=&quot;center&quot;&gt;env variables&lt;/div&gt;" style="rounded=0;whiteSpace=wrap;html=1;align=center;" parent="1" vertex="1">
          <mxGeometry x="100" y="30" width="80" height="40" as="geometry" />
        </mxCell>
        <mxCell id="TLyrYJzbf9Jdq_ymWs2M-45" value="TypeScript compiler, tsc compiles the TS code in src to tsconfig specified JS=ES for runtime environment to dist folder. &lt;br&gt;Here runtime env: Node.js&#39; V8 JS engine" style="rounded=0;whiteSpace=wrap;html=1;fontSize=9;" parent="1" vertex="1">
          <mxGeometry x="640" y="20" width="200" height="70" as="geometry" />
        </mxCell>
        <mxCell id="G-eGzGCWV8WMttfqfIlS-20" value="&lt;div&gt;.env.local &lt;br&gt;&lt;/div&gt;&lt;div&gt;file&lt;/div&gt;" style="shape=cylinder3;whiteSpace=wrap;html=1;boundedLbl=1;backgroundOutline=1;size=15;" vertex="1" parent="1">
          <mxGeometry x="30" y="20" width="60" height="60" as="geometry" />
        </mxCell>
      </root>
    </mxGraphModel>
  </diagram>
</mxfile>
